<?xml version="1.0" encoding="UTF-8"?>
<svg width="115px" height="89px" viewBox="0 0 115 89" version="1.1" xmlns="http://www.w3.org/2000/svg" xmlns:xlink="http://www.w3.org/1999/xlink">
    <!-- Generator: Sketch 41.2 (35397) - http://www.bohemiancoding.com/sketch -->
    <title>play_reel</title>
    <desc>Created with Sketch.</desc>
    <defs>
        <linearGradient x1="50%" y1="0%" x2="50%" y2="100%" id="linearGradient-1">
            <stop stop-color="#FFAE00" offset="0%"></stop>
            <stop stop-color="#FF7500" offset="100%"></stop>
        </linearGradient>
    </defs>
    <g id="UI" stroke="none" stroke-width="1" fill="none" fill-rule="evenodd">
        <g id="home" transform="translate(-206.000000, -344.000000)" fill="url(#linearGradient-1)">
            <g id="play_reel" transform="translate(206.000000, 344.000000)">
                <path d="M31,45.3976541 L31,3.60234586 L73.7240929,24.5 L31,45.3976541 Z M29,48.6023459 L78.2759071,24.5 L29,0.39765414 L29,48.6023459 Z" id="Triangle-Copy"></path>
                <path d="M38.0666667,34.5715672 L38.0666667,14.4284328 L58.6574262,24.5 L38.0666667,34.5715672 Z M36.0666667,37.7762589 L63.2092404,24.5 L36.0666667,11.2237411 L36.0666667,37.7762589 Z" id="Triangle-Copy"></path>
                <path d="M4.87890625,75.9863281 L4.87890625,83 L0.77734375,83 L0.77734375,63.09375 L8.54296875,63.09375 C10.0377679,63.09375 11.3525334,63.3671848 12.4873047,63.9140625 C13.622076,64.4609402 14.4947886,65.2379507 15.1054688,66.2451172 C15.7161489,67.2522837 16.0214844,68.3984311 16.0214844,69.6835938 C16.0214844,71.6341243 15.3538478,73.1721949 14.0185547,74.2978516 C12.6832616,75.4235082 10.8352983,75.9863281 8.47460938,75.9863281 L4.87890625,75.9863281 Z M4.87890625,72.6640625 L8.54296875,72.6640625 C9.62760959,72.6640625 10.4547498,72.4088567 11.0244141,71.8984375 C11.5940784,71.3880183 11.8789062,70.6588589 11.8789062,69.7109375 C11.8789062,68.7356722 11.5917997,67.9472686 11.0175781,67.3457031 C10.4433565,66.7441376 9.65039568,66.4342449 8.63867188,66.4160156 L4.87890625,66.4160156 L4.87890625,72.6640625 Z M22.7480469,83 L18.7832031,83 L18.7832031,62 L22.7480469,62 L22.7480469,83 Z M34.5742188,83 C34.3919262,82.6445295 34.259766,82.2024766 34.1777344,81.6738281 C33.2206983,82.7402397 31.9765702,83.2734375 30.4453125,83.2734375 C28.9960865,83.2734375 27.7952522,82.8541709 26.8427734,82.015625 C25.8902947,81.1770791 25.4140625,80.119798 25.4140625,78.84375 C25.4140625,77.2760338 25.9951114,76.0729209 27.1572266,75.234375 C28.3193417,74.3958291 29.9986869,73.9720053 32.1953125,73.9628906 L34.0136719,73.9628906 L34.0136719,73.1152344 C34.0136719,72.4316372 33.8382179,71.8847677 33.4873047,71.4746094 C33.1363915,71.0644511 32.5826861,70.859375 31.8261719,70.859375 C31.160804,70.859375 30.6389993,71.0188786 30.2607422,71.3378906 C29.8824851,71.6569026 29.6933594,72.0943983 29.6933594,72.6503906 L25.7421875,72.6503906 C25.7421875,71.7936155 26.0065078,71.0006547 26.5351562,70.2714844 C27.0638047,69.5423141 27.8111931,68.9703797 28.7773438,68.5556641 C29.7434944,68.1409484 30.828119,67.9335938 32.03125,67.9335938 C33.8541758,67.9335938 35.3011014,68.391597 36.3720703,69.3076172 C37.4430392,70.2236374 37.9785156,71.5110594 37.9785156,73.1699219 L37.9785156,79.5820312 C37.9876303,80.9856841 38.1835918,82.0475224 38.5664062,82.7675781 L38.5664062,83 L34.5742188,83 Z M31.3066406,80.2519531 C31.8899769,80.2519531 32.4277319,80.1220716 32.9199219,79.8623047 C33.4121118,79.6025378 33.7766915,79.2539084 34.0136719,78.8164062 L34.0136719,76.2734375 L32.5371094,76.2734375 C30.5592349,76.2734375 29.5065111,76.9570244 29.3789062,78.3242188 L29.3652344,78.5566406 C29.3652344,79.0488306 29.5384097,79.4544255 29.8847656,79.7734375 C30.2311215,80.0924495 30.7050751,80.2519531 31.3066406,80.2519531 Z M46.3320312,77.4082031 L49.0664062,68.2070312 L53.3046875,68.2070312 L47.3574219,85.296875 L47.0292969,86.0761719 C46.1451779,88.0084732 44.6868591,88.9746094 42.6542969,88.9746094 C42.0800753,88.9746094 41.4967478,88.8880217 40.9042969,88.7148438 L40.9042969,85.7207031 L41.5058594,85.734375 C42.2532589,85.734375 42.8115216,85.6204438 43.1806641,85.3925781 C43.5498065,85.1647124 43.8391917,84.786461 44.0488281,84.2578125 L44.5136719,83.0410156 L39.3320312,68.2070312 L43.5839844,68.2070312 L46.3320312,77.4082031 Z M69.4648438,75.7128906 L66.1972656,75.7128906 L66.1972656,83 L62.0957031,83 L62.0957031,63.09375 L69.4921875,63.09375 C71.8437618,63.09375 73.6575457,63.6178333 74.9335938,64.6660156 C76.2096418,65.7141979 76.8476562,67.1953029 76.8476562,69.109375 C76.8476562,70.4674547 76.5537139,71.5999304 75.9658203,72.5068359 C75.3779267,73.4137415 74.4869851,74.136065 73.2929688,74.6738281 L77.5996094,82.8085938 L77.5996094,83 L73.1972656,83 L69.4648438,75.7128906 Z M66.1972656,72.390625 L69.5058594,72.390625 C70.5358124,72.390625 71.3333305,72.1285833 71.8984375,71.6044922 C72.4635445,71.080401 72.7460938,70.3580775 72.7460938,69.4375 C72.7460938,68.4986932 72.4794949,67.7604194 71.9462891,67.2226562 C71.4130833,66.6848931 70.5950576,66.4160156 69.4921875,66.4160156 L66.1972656,66.4160156 L66.1972656,72.390625 Z M86.5136719,83.2734375 C84.3443902,83.2734375 82.5784573,82.6080796 81.2158203,81.2773438 C79.8531833,79.9466079 79.171875,78.1738392 79.171875,75.9589844 L79.171875,75.5761719 C79.171875,74.0904874 79.4589815,72.7620501 80.0332031,71.5908203 C80.6074247,70.4195905 81.4208932,69.5172558 82.4736328,68.8837891 C83.5263725,68.2503224 84.7272068,67.9335938 86.0761719,67.9335938 C88.0996195,67.9335938 89.692377,68.5716082 90.8544922,69.8476562 C92.0166074,71.1237043 92.5976562,72.932931 92.5976562,75.2753906 L92.5976562,76.8886719 L83.1777344,76.8886719 C83.3053392,77.8548225 83.6904265,78.6295544 84.3330078,79.2128906 C84.9755892,79.7962269 85.7890576,80.0878906 86.7734375,80.0878906 C88.2955805,80.0878906 89.4850218,79.5364638 90.3417969,78.4335938 L92.2832031,80.6074219 C91.6907522,81.4459677 90.8886769,82.0999325 89.8769531,82.5693359 C88.8652293,83.0387393 87.7441468,83.2734375 86.5136719,83.2734375 Z M86.0625,71.1328125 C85.2786419,71.1328125 84.6429061,71.3971328 84.1552734,71.9257812 C83.6676408,72.4544297 83.3554694,73.2109326 83.21875,74.1953125 L88.7148438,74.1953125 L88.7148438,73.8808594 C88.6966145,73.005855 88.4596377,72.329104 88.0039062,71.8505859 C87.5481748,71.3720679 86.9010459,71.1328125 86.0625,71.1328125 Z M101.648438,83.2734375 C99.4791558,83.2734375 97.713223,82.6080796 96.3505859,81.2773438 C94.9879489,79.9466079 94.3066406,78.1738392 94.3066406,75.9589844 L94.3066406,75.5761719 C94.3066406,74.0904874 94.5937471,72.7620501 95.1679688,71.5908203 C95.7421904,70.4195905 96.5556588,69.5172558 97.6083984,68.8837891 C98.6611381,68.2503224 99.8619724,67.9335938 101.210938,67.9335938 C103.234385,67.9335938 104.827143,68.5716082 105.989258,69.8476562 C107.151373,71.1237043 107.732422,72.932931 107.732422,75.2753906 L107.732422,76.8886719 L98.3125,76.8886719 C98.4401048,77.8548225 98.8251921,78.6295544 99.4677734,79.2128906 C100.110355,79.7962269 100.923823,80.0878906 101.908203,80.0878906 C103.430346,80.0878906 104.619787,79.5364638 105.476562,78.4335938 L107.417969,80.6074219 C106.825518,81.4459677 106.023443,82.0999325 105.011719,82.5693359 C103.999995,83.0387393 102.878912,83.2734375 101.648438,83.2734375 Z M101.197266,71.1328125 C100.413408,71.1328125 99.7776717,71.3971328 99.2900391,71.9257812 C98.8024064,72.4544297 98.4902351,73.2109326 98.3535156,74.1953125 L103.849609,74.1953125 L103.849609,73.8808594 C103.83138,73.005855 103.594403,72.329104 103.138672,71.8505859 C102.68294,71.3720679 102.035811,71.1328125 101.197266,71.1328125 Z M114.144531,83 L110.179688,83 L110.179688,62 L114.144531,62 L114.144531,83 Z" id="Play-Reel-Copy"></path>
            </g>
        </g>
    </g>
</svg>