<?xml version="1.0" encoding="UTF-8"?>
<svg width="987px" height="175px" viewBox="0 0 987 175" version="1.1" xmlns="http://www.w3.org/2000/svg" xmlns:xlink="http://www.w3.org/1999/xlink">
    <!-- Generator: Sketch 41.2 (35397) - http://www.bohemiancoding.com/sketch -->
    <title>refuge_logo</title>
    <desc>Created with Sketch.</desc>
    <defs>
        <linearGradient x1="50%" y1="0%" x2="50%" y2="100%" id="linearGradient-1">
            <stop stop-color="#ED9647" offset="0%"></stop>
            <stop stop-color="#F06232" offset="100%"></stop>
        </linearGradient>
    </defs>
    <g id="UI" stroke="none" stroke-width="1" fill="none" fill-rule="evenodd">
        <g id="refuge_logo">
            <path d="M231.905915,0 C231.69961,0.327915732 231.580171,0.714465404 231.584514,1.1270746 L231.597544,2.61029609 C231.617088,5.11201082 231.634461,8.28041515 231.634461,8.57575647 L231.634461,88.8108728 C231.634461,96.4202551 229.823324,103.345575 226.244482,109.402243 C223.05219,114.811767 219.036851,118.657719 214.300532,120.827175 C213.195173,121.335336 212.352582,122.273479 211.996435,123.407068 C211.631602,124.540658 211.785787,125.782829 212.413388,126.79915 L241.1071,173.413132 C241.504508,174.060277 242.234175,174.466371 243.01596,174.466371 L248.043278,174.466371 C248.857638,174.466371 249.606849,174.034217 249.995571,173.337125 C250.369091,172.66392 250.353889,171.869105 249.947795,171.215445 L222.726446,126.988082 C222.441963,126.51901 222.580947,125.937014 223.060877,125.59824 C227.262976,122.655685 230.900451,118.612115 233.869066,113.580455 C238.205806,106.238182 240.405664,97.9034766 240.405664,88.8108728 L240.405664,8.57575647 C240.405664,8.26738538 240.383948,4.94913877 240.368747,2.40181987 L240.355717,1.07061229 C240.355717,0.690577502 240.249307,0.32140085 240.056032,0 L231.905915,0 Z M209.008276,0 C208.808486,0.32140085 208.69339,0.699264012 208.69339,1.10101507 L208.69339,82.096201 C208.69339,88.9237974 206.647717,94.9001159 202.43476,100.366102 C198.217459,105.849461 192.966465,109.480422 186.373404,111.463118 L185.595961,111.715027 C182.562198,112.551103 181.506787,114.29492 181.152812,115.613098 C180.96388,116.325392 180.68374,118.188648 182.173477,119.98024 L214.426486,173.395759 C214.823894,174.055933 215.553561,174.466371 216.33969,174.466371 L221.37135,174.466371 C222.196569,174.466371 222.921892,174.045075 223.317129,173.347983 C223.694992,172.674778 223.684134,171.886478 223.286726,171.230646 L192.173821,119.73919 C192.019635,119.487281 191.987061,119.198455 192.078269,118.924829 C192.180335,118.620802 192.417043,118.375408 192.742787,118.240767 C199.387967,115.552292 205.025511,111.237269 209.503407,105.417307 C214.808693,98.5289052 217.492824,90.6849872 217.492824,82.096201 L217.492824,1.10101507 C217.492824,0.699264012 217.379899,0.32140085 217.18011,0 L209.008276,0 Z M22.6500734,0 C22.5197758,0.271453421 22.4502837,0.573309625 22.4502837,0.89036722 L22.4502837,172.318632 C22.4502837,173.499997 23.4470607,174.466371 24.6696869,174.466371 L29.0303146,174.466371 C30.2529408,174.466371 31.2475462,173.499997 31.2475462,172.318632 L31.2475462,0.89036722 C31.2475462,0.573309625 31.1758825,0.271453421 31.0499281,0 L22.6500734,0 Z M0.256252029,0 C0.0933799767,0.301856204 0,0.6428017 0,1.00546347 L0,172.318632 C0,173.499997 0.994605334,174.466371 2.2215748,174.466371 L6.67775415,174.466371 C7.90255199,174.466371 8.89715732,173.499997 8.89715732,172.318632 L8.89715732,1.00546347 C8.89715732,0.6428017 8.80377734,0.301856204 8.63873366,0 L0.256252029,0 Z M78.5130158,11.9873831 C77.2925612,11.9873831 76.2979559,12.9515856 76.2979559,14.1351225 L76.2979559,69.9220579 C76.2979559,71.1055949 77.2925612,72.0697974 78.5130158,72.0697974 L159.210689,72.0697974 C160.433315,72.0697974 161.432264,71.1055949 161.432264,69.9220579 L161.432264,14.1351225 C161.432264,12.9515856 160.433315,11.9873831 159.210689,11.9873831 L78.5130158,11.9873831 Z M85.0952183,62.5298384 L85.0952183,21.5316853 C85.0952183,20.9410027 85.6033792,20.4654163 86.2288078,20.4654163 L151.49924,20.4654163 C152.124669,20.4654163 152.632829,20.9410027 152.632829,21.5316853 L152.632829,62.5298384 C152.632829,63.1140061 152.124669,63.5939358 151.49924,63.5939358 L86.2288078,63.5939358 C85.6033792,63.5939358 85.0952183,63.1140061 85.0952183,62.5298384 L85.0952183,62.5298384 Z M84.1831349,111.245955 C80.8822613,111.245955 78.1981298,113.830192 78.1981298,117.007282 L78.1981298,172.318632 C78.1981298,173.499997 79.1949068,174.466371 80.4197046,174.466371 L84.7759891,174.466371 C86.000787,174.466371 86.9997355,173.499997 86.9997355,172.318632 L86.9997355,120.790257 C86.9997355,120.203918 87.5057247,119.728332 88.133325,119.728332 L119.150679,119.728332 C120.171344,119.728332 121.116001,120.253865 121.611133,121.105143 L152.081236,173.371871 C152.474301,174.045075 153.216997,174.466371 154.013984,174.466371 L159.006556,174.466371 C159.823088,174.466371 160.54624,174.049419 160.943647,173.358841 C161.323682,172.700838 161.321511,171.912537 160.941476,171.256706 L128.006575,114.768335 C126.820867,112.531558 124.58409,111.245955 121.871728,111.245955 L84.1831349,111.245955 Z" id="Fill-1" fill="url(#linearGradient-1)"></path>
            <g id="Group" transform="translate(348.000000, 34.000000)">
                <path d="M58.7458057,23.9824507 L24.4340933,23.9824507 L24.4340933,48.0875144 L58.7458057,48.0875144 L58.7458057,23.9824507 Z M87.1941242,98.2521066 C87.6284497,98.9035948 87.6284497,99.555083 87.4112869,99.9894085 C87.1941242,100.423734 86.542636,100.640897 85.8911478,100.640897 L63.3062232,100.640897 C62.4375722,100.640897 61.786084,100.423734 61.1345958,99.9894085 C60.4831076,99.555083 59.8316194,99.1207576 59.3972939,98.2521066 L44.4130651,71.1067645 C44.1959023,70.6724391 43.9787396,70.4552763 43.3272514,70.4552763 L26.3885579,70.4552763 C25.9542325,70.4552763 25.7370697,70.6724391 25.7370697,71.1067645 L25.7370697,97.6006184 C25.7370697,99.3379203 24.8684188,100.206571 23.1311169,100.206571 L3.5864706,100.206571 C1.84916871,100.206571 0.980517761,99.3379203 0.980517761,97.6006184 L0.980517761,3.3519907 C0.980517761,1.61468881 1.84916871,0.74603786 3.5864706,0.74603786 L67.8666406,0.74603786 C70.038268,0.74603786 72.2098954,1.18036333 74.3815227,2.04901428 C76.3359874,2.91766523 78.290452,4.22064165 79.5934284,5.52361807 C81.1135676,7.04375722 82.1993813,8.78105912 83.0680322,10.7355237 C83.9366832,12.6899884 84.3710086,14.8616157 84.3710086,17.2504058 L84.3710086,55.036722 C84.3710086,58.7284885 83.2851949,61.9859296 81.1135676,64.8090452 C78.9419402,67.6321607 76.3359874,69.5866254 72.8613836,70.6724391 L72.4270581,70.8896018 C71.7755699,71.1067645 71.5584072,71.3239273 71.9927326,71.7582527 L72.2098954,71.9754155 L87.1941242,98.2521066 Z" id="Shape" fill="#58595B"></path>
                <path d="M58.7458057,23.9824507 L24.4340933,23.9824507 L24.4340933,48.0875144 L58.7458057,48.0875144 L58.7458057,23.9824507 Z M87.1941242,98.2521066 C87.6284497,98.9035948 87.6284497,99.555083 87.4112869,99.9894085 C87.1941242,100.423734 86.542636,100.640897 85.8911478,100.640897 L63.3062232,100.640897 C62.4375722,100.640897 61.786084,100.423734 61.1345958,99.9894085 C60.2659449,99.555083 59.8316194,99.1207576 59.3972939,98.2521066 L44.4130651,71.1067645 C44.1959023,70.6724391 43.9787396,70.4552763 43.3272514,70.4552763 L26.3885579,70.4552763 C25.9542325,70.4552763 25.7370697,70.6724391 25.7370697,71.1067645 L25.7370697,97.6006184 C25.7370697,99.3379203 24.8684188,100.206571 23.1311169,100.206571 L3.5864706,100.206571 C1.84916871,100.206571 0.980517761,99.3379203 0.980517761,97.6006184 L0.980517761,3.3519907 C0.980517761,1.61468881 1.84916871,0.74603786 3.5864706,0.74603786 L67.8666406,0.74603786 C70.038268,0.74603786 72.2098954,1.18036333 74.3815227,2.04901428 C76.3359874,2.91766523 78.290452,4.22064165 79.5934284,5.52361807 C81.1135676,7.04375722 82.1993813,8.78105912 83.0680322,10.7355237 C83.9366832,12.6899884 84.3710086,14.8616157 84.3710086,17.2504058 L84.3710086,55.036722 C84.3710086,58.7284885 83.2851949,61.9859296 81.1135676,64.8090452 C78.9419402,67.6321607 76.3359874,69.5866254 72.8613836,70.6724391 L72.4270581,70.8896018 C71.7755699,71.1067645 71.5584072,71.3239273 71.9927326,71.7582527 L72.2098954,71.9754155 L87.1941242,98.2521066 Z" id="Shape" stroke="#FFFFFF" stroke-width="0.25"></path>
                <path d="M194.689679,1.61468881 C195.124004,2.04901428 195.55833,2.70050249 195.55833,3.56915344 L195.55833,11.6041747 L195.55833,15.9474294 L195.55833,21.5936606 C195.55833,22.2451488 195.341167,22.896637 194.689679,23.3309625 C194.255353,23.7652879 193.603865,23.9824507 192.735214,23.9824507 L182.528566,23.9824507 L152.994433,23.9824507 L144.959412,23.9824507 C144.525087,23.9824507 144.307924,24.1996134 144.307924,24.6339389 L144.307924,40.0524932 C144.307924,40.4868187 144.525087,40.7039814 144.959412,40.7039814 L185.568844,40.7039814 C186.220332,40.7039814 186.87182,40.9211441 187.306146,41.5726323 C187.740471,42.0069578 187.957634,42.658446 187.957634,43.527097 L187.957634,57.8598376 C187.957634,58.7284885 187.740471,59.162814 187.306146,59.8143022 C186.87182,60.2486277 186.220332,60.6829532 185.568844,60.6829532 L144.959412,60.6829532 C144.525087,60.6829532 144.307924,60.9001159 144.307924,61.3344414 L144.307924,68.283649 L144.307924,68.5008117 L144.307924,76.7529957 C144.307924,77.1873212 144.525087,77.4044839 144.959412,77.4044839 L151.039969,77.4044839 L183.180054,77.4044839 L192.735214,77.4044839 C193.603865,77.4044839 194.038191,77.6216466 194.689679,78.2731348 C195.124004,78.7074603 195.55833,79.3589485 195.55833,80.2275995 L195.55833,85.8738306 L195.55833,93.2573637 L195.55833,98.0349439 C195.55833,98.9035948 195.341167,99.3379203 194.689679,99.9894085 C194.255353,100.423734 193.603865,100.858059 192.735214,100.858059 L184.700193,100.858059 L130.626672,100.858059 L122.157325,100.858059 C120.420023,100.858059 119.551372,99.9894085 119.551372,98.2521066 L119.551372,93.4745264 L119.551372,10.9526865 L119.551372,4.22064165 C119.551372,3.3519907 119.768535,2.91766523 120.420023,2.26617702 C120.854348,1.83185154 121.505837,1.39752607 122.374488,1.39752607 L132.798299,1.39752607 L188.391959,1.39752607 L192.952377,1.39752607 C193.603865,0.963200597 194.255353,1.18036333 194.689679,1.61468881" id="Shape" fill="#58595B"></path>
                <path d="M194.689679,1.61468881 C195.124004,2.04901428 195.55833,2.70050249 195.55833,3.56915344 L195.55833,11.6041747 L195.55833,15.9474294 L195.55833,21.5936606 C195.55833,22.2451488 195.341167,22.896637 194.689679,23.5481252 C194.255353,23.9824507 193.603865,24.1996134 192.735214,24.1996134 L182.528566,24.1996134 L152.994433,24.1996134 L144.959412,24.1996134 C144.525087,24.1996134 144.307924,24.4167762 144.307924,24.8511016 L144.307924,40.2696559 C144.307924,40.7039814 144.525087,40.9211441 144.959412,40.9211441 L185.568844,40.9211441 C186.220332,40.9211441 186.87182,41.1383069 187.306146,41.7897951 C187.740471,42.2241206 187.957634,42.8756088 187.957634,43.7442597 L187.957634,58.0770003 C187.957634,58.9456513 187.740471,59.3799767 187.306146,60.031465 C186.87182,60.4657904 186.220332,60.9001159 185.568844,60.9001159 L144.959412,60.9001159 C144.525087,60.9001159 144.307924,61.1172786 144.307924,61.5516041 L144.307924,68.5008117 L144.307924,68.7179744 L144.307924,76.9701584 C144.307924,77.4044839 144.525087,77.6216466 144.959412,77.6216466 L151.039969,77.6216466 L183.180054,77.6216466 L192.735214,77.6216466 C193.603865,77.6216466 194.038191,77.8388094 194.689679,78.4902976 C195.124004,78.924623 195.55833,79.5761113 195.55833,80.4447622 L195.55833,86.0909934 L195.55833,93.4745264 L195.55833,98.2521066 C195.55833,99.1207576 195.341167,99.555083 194.689679,100.206571 C194.255353,100.640897 193.603865,101.075222 192.735214,101.075222 L184.700193,101.075222 L130.626672,101.075222 L122.157325,101.075222 C120.420023,101.075222 119.551372,100.206571 119.551372,98.4692693 L119.551372,93.6916891 L119.551372,11.1698492 L119.551372,4.43780438 C119.551372,3.56915344 119.768535,3.13482796 120.420023,2.48333975 C120.854348,2.04901428 121.505837,1.61468881 122.374488,1.61468881 L132.798299,1.61468881 L188.391959,1.61468881 L192.952377,1.61468881 C193.603865,0.963200597 194.255353,1.18036333 194.689679,1.61468881 Z" id="Shape" stroke="#FFFFFF" stroke-width="0.25"></path>
                <path d="M304.139698,1.61468881 C304.574024,2.04901428 305.008349,2.70050249 305.008349,3.56915344 L305.008349,22.4623115 C305.008349,23.1137997 304.791186,23.7652879 304.139698,24.4167762 C303.705373,24.8511016 303.053884,25.2854271 302.185233,25.2854271 L254.409431,25.2854271 C253.975106,25.2854271 253.757943,25.5025898 253.757943,25.9369153 L253.757943,42.8756088 C253.757943,43.3099342 253.975106,43.527097 254.409431,43.527097 L290.458446,43.527097 C291.109934,43.527097 291.761422,43.7442597 292.195748,44.3957479 C292.630073,44.8300734 292.847236,45.4815616 292.847236,46.3502126 L292.847236,62.6374178 C292.847236,63.288906 292.630073,63.9403942 292.195748,64.5918824 C291.761422,65.0262079 291.109934,65.4605334 290.458446,65.4605334 L254.409431,65.4605334 C253.975106,65.4605334 253.757943,65.6776961 253.757943,66.1120216 L253.757943,98.0349439 C253.757943,99.7722458 252.889292,100.640897 251.15199,100.640897 L231.607344,100.640897 C229.870042,100.640897 229.001391,99.7722458 229.001391,98.0349439 L229.001391,3.78631617 C229.001391,2.91766523 229.218554,2.48333975 229.870042,1.83185154 C230.304368,1.39752607 230.955856,0.963200597 231.824507,0.963200597 L302.619559,0.963200597 C303.053884,0.963200597 303.705373,1.18036333 304.139698,1.61468881" id="Shape" fill="#58595B"></path>
                <path d="M304.139698,1.61468881 C304.574024,2.04901428 305.008349,2.70050249 305.008349,3.56915344 L305.008349,22.4623115 C305.008349,23.1137997 304.791186,23.7652879 304.139698,24.4167762 C303.705373,24.8511016 303.053884,25.2854271 302.185233,25.2854271 L254.409431,25.2854271 C253.975106,25.2854271 253.757943,25.5025898 253.757943,25.9369153 L253.757943,42.8756088 C253.757943,43.3099342 253.975106,43.527097 254.409431,43.527097 L290.458446,43.527097 C291.109934,43.527097 291.761422,43.7442597 292.195748,44.3957479 C292.630073,44.8300734 292.847236,45.4815616 292.847236,46.3502126 L292.847236,62.6374178 C292.847236,63.5060687 292.630073,63.9403942 292.195748,64.5918824 C291.761422,65.0262079 291.109934,65.4605334 290.458446,65.4605334 L254.409431,65.4605334 C253.975106,65.4605334 253.757943,65.6776961 253.757943,66.1120216 L253.757943,98.0349439 C253.757943,99.7722458 252.889292,100.640897 251.15199,100.640897 L231.607344,100.640897 C229.870042,100.640897 229.001391,99.7722458 229.001391,98.0349439 L229.001391,3.78631617 C229.001391,2.91766523 229.218554,2.48333975 229.870042,1.83185154 C230.304368,1.39752607 230.955856,0.963200597 231.824507,0.963200597 L302.619559,0.963200597 C303.053884,0.963200597 303.705373,1.18036333 304.139698,1.61468881 Z" id="Shape" stroke="#FFFFFF" stroke-width="0.25"></path>
                <path d="M412.721066,1.61468881 C413.155392,2.04901428 413.589717,2.70050249 413.589717,3.56915344 L413.589717,83.919366 C413.589717,86.0909934 413.155392,88.2626207 412.286741,90.4342481 C411.41809,92.3887127 410.115114,94.3431773 408.812137,95.8633165 C407.291998,97.3834557 405.554696,98.4692693 403.600231,99.3379203 C401.645767,100.206571 399.474139,100.640897 397.085349,100.640897 L346.703594,100.640897 C344.314804,100.640897 342.36034,100.206571 340.188712,99.3379203 C338.234248,98.4692693 336.279783,97.3834557 334.759644,95.8633165 C333.239505,94.3431773 332.153691,92.6058755 331.28504,90.4342481 C330.416389,88.4797835 329.982064,86.3081561 329.982064,83.919366 L329.982064,3.56915344 C329.982064,1.83185154 330.850715,0.963200597 332.588017,0.963200597 L352.132663,0.963200597 C353.869965,0.963200597 354.738616,1.83185154 354.738616,3.56915344 L354.738616,73.7127174 C354.738616,74.5813683 354.955778,75.0156938 355.607267,75.667182 C356.041592,76.1015075 356.69308,76.3186702 357.561731,76.3186702 L385.792887,76.3186702 C386.661538,76.3186702 387.095863,76.1015075 387.747352,75.667182 C388.181677,75.2328565 388.39884,74.5813683 388.39884,73.7127174 L388.39884,3.56915344 C388.39884,2.70050249 388.616003,2.26617702 389.267491,1.61468881 C389.701816,1.18036333 390.353305,0.74603786 391.221955,0.74603786 L410.983765,0.74603786 C411.41809,0.963200597 412.069578,1.18036333 412.721066,1.61468881" id="Shape" fill="#58595B"></path>
                <path d="M412.721066,1.61468881 C413.155392,2.04901428 413.589717,2.70050249 413.589717,3.56915344 L413.589717,83.919366 C413.589717,86.0909934 413.155392,88.2626207 412.286741,90.4342481 C411.41809,92.3887127 410.115114,94.3431773 408.812137,95.8633165 C407.291998,97.3834557 405.554696,98.4692693 403.600231,99.3379203 C401.645767,100.206571 399.474139,100.640897 397.085349,100.640897 L346.703594,100.640897 C344.314804,100.640897 342.36034,100.206571 340.188712,99.3379203 C338.234248,98.4692693 336.279783,97.3834557 334.759644,95.8633165 C333.239505,94.3431773 332.153691,92.6058755 331.28504,90.4342481 C330.416389,88.4797835 329.982064,86.3081561 329.982064,83.919366 L329.982064,3.56915344 C329.982064,1.83185154 330.850715,0.963200597 332.588017,0.963200597 L352.132663,0.963200597 C353.869965,0.963200597 354.738616,1.83185154 354.738616,3.56915344 L354.738616,73.7127174 C354.738616,74.5813683 354.955778,75.0156938 355.607267,75.667182 C356.041592,76.1015075 356.69308,76.3186702 357.561731,76.3186702 L385.792887,76.3186702 C386.661538,76.3186702 387.095863,76.1015075 387.747352,75.667182 C388.181677,75.2328565 388.39884,74.5813683 388.39884,73.7127174 L388.39884,3.56915344 C388.39884,2.70050249 388.616003,2.26617702 389.267491,1.61468881 C389.701816,1.18036333 390.353305,0.74603786 391.221955,0.74603786 L410.983765,0.74603786 C411.41809,0.963200597 412.069578,1.18036333 412.721066,1.61468881 Z" id="Shape" stroke="#FFFFFF" stroke-width="0.25"></path>
                <path d="M529.120293,42.658446 C529.554619,43.0927715 529.988944,43.7442597 529.988944,44.6129107 L529.988944,83.919366 C529.988944,86.0909934 529.554619,88.2626207 528.685968,90.4342481 C527.817317,92.3887127 526.51434,94.3431773 525.211364,95.8633165 C523.691225,97.3834557 521.953923,98.4692693 519.999458,99.3379203 C518.044994,100.206571 515.873366,100.640897 513.484576,100.640897 L463.102821,100.640897 C460.714031,100.640897 458.759567,100.206571 456.587939,99.3379203 C454.633475,98.4692693 452.67901,97.3834557 451.158871,95.8633165 C449.638732,94.3431773 448.552918,92.6058755 447.684267,90.4342481 C446.815616,88.4797835 446.381291,86.3081561 446.381291,83.919366 L446.381291,17.6847313 C446.381291,15.513104 446.815616,13.3414766 447.684267,11.1698492 C448.552918,9.21538459 449.638732,7.4780827 451.158871,5.95794354 C452.67901,4.43780438 454.416312,3.3519907 456.587939,2.48333975 C458.542404,1.61468881 460.714031,1.18036333 463.102821,1.18036333 L521.953923,1.18036333 C522.605411,1.18036333 523.256899,1.39752607 523.908388,2.04901428 C524.342713,2.48333975 524.777039,3.13482796 524.777039,4.00347891 L524.777039,22.896637 C524.777039,23.5481252 524.559876,24.1996134 523.908388,24.8511016 C523.474062,25.2854271 522.822574,25.7197526 521.953923,25.7197526 L474.178121,25.7197526 C473.30947,25.7197526 472.875144,25.9369153 472.223656,26.3712408 C471.789331,26.8055663 471.355005,27.4570545 471.355005,28.3257054 L471.355005,74.3642056 C471.355005,75.2328565 471.572168,75.667182 472.223656,76.3186702 C472.657982,76.7529957 473.30947,76.9701584 474.178121,76.9701584 L502.409277,76.9701584 C503.060765,76.9701584 503.712253,76.7529957 504.363741,76.3186702 C504.798067,75.8843447 505.015229,75.2328565 505.015229,74.3642056 L505.015229,45.0472361 C505.015229,44.3957479 505.232392,43.7442597 505.88388,43.0927715 C506.318206,42.658446 506.969694,42.2241206 507.838345,42.2241206 L527.600154,42.2241206 C528.03448,41.7897951 528.685968,42.0069578 529.120293,42.658446" id="Shape" fill="#58595B"></path>
                <path d="M529.120293,42.658446 C529.554619,43.0927715 529.988944,43.7442597 529.988944,44.6129107 L529.988944,83.919366 C529.988944,86.0909934 529.554619,88.2626207 528.685968,90.4342481 C527.817317,92.3887127 526.51434,94.3431773 525.211364,95.8633165 C523.691225,97.3834557 521.953923,98.4692693 519.999458,99.3379203 C518.044994,100.206571 515.873366,100.640897 513.484576,100.640897 L463.102821,100.640897 C460.714031,100.640897 458.759567,100.206571 456.587939,99.3379203 C454.633475,98.4692693 452.67901,97.3834557 451.158871,95.8633165 C449.638732,94.3431773 448.552918,92.6058755 447.684267,90.4342481 C446.815616,88.4797835 446.381291,86.3081561 446.381291,83.919366 L446.381291,17.6847313 C446.381291,15.513104 446.815616,13.3414766 447.684267,11.1698492 C448.552918,9.21538459 449.638732,7.4780827 451.158871,5.95794354 C452.67901,4.43780438 454.416312,3.3519907 456.587939,2.48333975 C458.542404,1.61468881 460.714031,1.18036333 463.102821,1.18036333 L521.953923,1.18036333 C522.605411,1.18036333 523.256899,1.39752607 523.908388,2.04901428 C524.342713,2.48333975 524.777039,3.13482796 524.777039,4.00347891 L524.777039,22.896637 C524.777039,23.5481252 524.559876,24.1996134 523.908388,24.8511016 C523.474062,25.2854271 522.822574,25.7197526 521.953923,25.7197526 L474.178121,25.7197526 C473.30947,25.7197526 472.875144,25.9369153 472.223656,26.3712408 C471.789331,26.8055663 471.355005,27.4570545 471.355005,28.3257054 L471.355005,74.3642056 C471.355005,75.2328565 471.572168,75.667182 472.223656,76.3186702 C472.657982,76.7529957 473.30947,76.9701584 474.178121,76.9701584 L502.409277,76.9701584 C503.060765,76.9701584 503.712253,76.7529957 504.363741,76.3186702 C504.798067,75.8843447 505.015229,75.2328565 505.015229,74.3642056 L505.015229,45.0472361 C505.015229,44.3957479 505.232392,43.7442597 505.88388,43.0927715 C506.318206,42.658446 506.969694,42.2241206 507.838345,42.2241206 L527.600154,42.2241206 C528.03448,41.7897951 528.685968,42.0069578 529.120293,42.658446 Z" id="Shape" stroke="#FFFFFF" stroke-width="0.25"></path>
                <path d="M637.484499,1.61468881 C637.918824,2.04901428 638.35315,2.70050249 638.35315,3.56915344 L638.35315,11.6041747 L638.35315,15.9474294 L638.35315,21.5936606 C638.35315,22.2451488 638.135987,22.896637 637.484499,23.3309625 C637.050173,23.7652879 636.398685,23.9824507 635.530034,23.9824507 L625.323386,23.9824507 L595.789253,23.9824507 L587.971395,23.9824507 C587.537069,23.9824507 587.319907,24.1996134 587.319907,24.6339389 L587.319907,40.0524932 C587.319907,40.4868187 587.537069,40.7039814 587.971395,40.7039814 L628.580827,40.7039814 C629.232315,40.7039814 629.883803,40.9211441 630.318129,41.5726323 C630.752454,42.0069578 630.969617,42.658446 630.969617,43.527097 L630.969617,57.8598376 C630.969617,58.7284885 630.752454,59.162814 630.318129,59.8143022 C629.883803,60.2486277 629.232315,60.6829532 628.580827,60.6829532 L587.971395,60.6829532 C587.537069,60.6829532 587.319907,60.9001159 587.319907,61.3344414 L587.319907,68.283649 L587.319907,68.5008117 L587.319907,76.7529957 C587.319907,77.1873212 587.537069,77.4044839 587.971395,77.4044839 L594.051951,77.4044839 L626.192037,77.4044839 L635.747197,77.4044839 C636.615848,77.4044839 637.050173,77.6216466 637.701662,78.2731348 C638.135987,78.7074603 638.570313,79.3589485 638.570313,80.2275995 L638.570313,85.8738306 L638.570313,93.2573637 L638.570313,98.0349439 C638.570313,98.9035948 638.35315,99.3379203 637.701662,99.9894085 C637.267336,100.423734 636.615848,100.858059 635.747197,100.858059 L627.712176,100.858059 L573.638654,100.858059 L565.169308,100.858059 C563.432006,100.858059 562.563355,99.9894085 562.563355,98.2521066 L562.563355,93.4745264 L562.563355,10.9526865 L562.563355,4.22064165 C562.563355,3.3519907 562.780517,2.91766523 563.432006,2.26617702 C563.866331,1.83185154 564.517819,1.39752607 565.38647,1.39752607 L575.810282,1.39752607 L631.621105,1.39752607 L636.181522,1.39752607 C636.398685,0.963200597 637.050173,1.18036333 637.484499,1.61468881" id="Shape" fill="#58595B"></path>
                <path d="M637.484499,1.61468881 C637.918824,2.04901428 638.35315,2.70050249 638.35315,3.56915344 L638.35315,11.6041747 L638.35315,15.9474294 L638.35315,21.5936606 C638.35315,22.2451488 638.135987,22.896637 637.484499,23.5481252 C637.050173,23.9824507 636.398685,24.1996134 635.530034,24.1996134 L625.323386,24.1996134 L595.789253,24.1996134 L587.971395,24.1996134 C587.537069,24.1996134 587.319907,24.4167762 587.319907,24.8511016 L587.319907,40.2696559 C587.319907,40.7039814 587.537069,40.9211441 587.971395,40.9211441 L628.580827,40.9211441 C629.232315,40.9211441 629.883803,41.1383069 630.318129,41.7897951 C630.752454,42.2241206 630.969617,42.8756088 630.969617,43.7442597 L630.969617,58.0770003 C630.969617,58.9456513 630.752454,59.3799767 630.318129,60.031465 C629.883803,60.4657904 629.232315,60.9001159 628.580827,60.9001159 L587.971395,60.9001159 C587.537069,60.9001159 587.319907,61.1172786 587.319907,61.5516041 L587.319907,68.5008117 L587.319907,68.7179744 L587.319907,76.9701584 C587.319907,77.4044839 587.537069,77.6216466 587.971395,77.6216466 L594.051951,77.6216466 L626.192037,77.6216466 L635.747197,77.6216466 C636.615848,77.6216466 637.050173,77.8388094 637.701662,78.4902976 C638.135987,78.924623 638.570313,79.5761113 638.570313,80.4447622 L638.570313,86.0909934 L638.570313,93.4745264 L638.570313,98.2521066 C638.570313,99.1207576 638.35315,99.555083 637.701662,100.206571 C637.267336,100.640897 636.615848,101.075222 635.747197,101.075222 L627.712176,101.075222 L573.638654,101.075222 L565.169308,101.075222 C563.432006,101.075222 562.563355,100.206571 562.563355,98.4692693 L562.563355,93.6916891 L562.563355,11.1698492 L562.563355,4.43780438 C562.563355,3.56915344 562.780517,3.13482796 563.432006,2.48333975 C563.866331,2.04901428 564.517819,1.61468881 565.38647,1.61468881 L575.810282,1.61468881 L631.621105,1.61468881 L636.181522,1.61468881 C636.398685,0.963200597 637.050173,1.18036333 637.484499,1.61468881 Z" id="Shape" stroke="#FFFFFF" stroke-width="0.25"></path>
            </g>
        </g>
    </g>
</svg>