<?xml version="1.0" encoding="UTF-8"?>
<svg width="87px" height="74px" viewBox="0 0 87 74" version="1.1" xmlns="http://www.w3.org/2000/svg" xmlns:xlink="http://www.w3.org/1999/xlink">
    <!-- Generator: Sketch 46.2 (44496) - http://www.bohemiancoding.com/sketch -->
    <title>twitter</title>
    <desc>Created with Sketch.</desc>
    <defs></defs>
    <g id="Page-1" stroke="none" stroke-width="1" fill="none" fill-rule="evenodd">
        <g id="twitter" transform="translate(3.000000, 2.000000)" stroke="#58595B" stroke-width="4" fill-rule="nonzero">
            <path d="M0.488358994,39.1890837 C0.488358994,39.1890837 10.3418089,43.8668685 19.7912319,44.6577541 C16.2900467,40.2043015 13.6163727,34.6852708 12.2200191,28.0296997 C12.2200191,28.0296997 23.9699919,33.6059581 34.111869,33.6059581 C34.9691386,33.6059581 35.8149627,33.5658987 36.6413294,33.4800573 C37.0487899,30.5122335 36.8839744,26.8382209 35.9694772,22.3069387 C33.0565919,7.88558101 42.4522209,0.289188049 52.7863827,0.289188049 C58.8067273,0.289188049 65.1418237,2.8644305 69.5517834,8.16942995 C71.5604725,7.86383452 73.6527139,7.70245265 75.825074,7.70245265 C77.0222756,7.70245265 78.2423682,7.7516684 79.487641,7.85238899 C79.487641,7.85238899 76.6468624,11.0239431 73.6744604,15.5517916 C74.3703481,17.554758 74.8647947,19.7568764 75.1120179,22.1650143 C78.3167641,53.4639388 57.6072366,69.583812 37.0465008,69.583812 C20.8636773,69.5826674 4.77241788,59.6044613 0.488358994,39.1890837 Z" id="Shape"></path>
        </g>
    </g>
</svg>